<svg xmlns="http://www.w3.org/2000/svg" width="16" height="15.656" id="icon" ><path d="M13.3 13.612c-.6-.042-1.29-.076-2.033-.1a6.866 6.866 0 0 0 1.671-2.25 1.6 1.6 0 0 0 2.689-.764 1.627 1.627 0 0 0-.189-1.227 1.593 1.593 0 0 0-1.758-.723 8.817 8.817 0 0 0 .048-.881.562.562 0 0 0-.559-.565H2.829a.563.563 0 0 0-.559.565 7.746 7.746 0 0 0 2.458 5.845c-.741.025-1.429.059-2.03.1-2.091.148-2.7.289-2.7.936s.608.788 2.7.936c1.418.1 3.3.156 5.3.156s3.883-.056 5.3-.156c2.092-.148 2.7-.289 2.7-.936s-.606-.787-2.698-.936zm.268-4.3a.075.075 0 0 0 .013-.006.932.932 0 0 1 1.285.316.951.951 0 0 1-.312 1.3.927.927 0 0 1-1.285-.316.324.324 0 0 0-.04-.043 8.381 8.381 0 0 0 .339-1.251zM3.408 8.231h9.183c-.22 3.044-2.2 5.434-4.592 5.434s-4.371-2.389-4.591-5.433zm3.555-2.285h.038a.452.452 0 0 0 .422-.607 3.206 3.206 0 0 1 .123-2.3A2.938 2.938 0 0 0 8.118.67a1.08 1.08 0 0 0-.665-.676.453.453 0 0 0-.557.305.449.449 0 0 0 .283.557.221.221 0 0 1 .1.126 2.061 2.061 0 0 1-.483 1.565l-.022.036a7.018 7.018 0 0 1-.146.234c-.681 1.056-.885 1.887-.606 2.47a1.207 1.207 0 0 0 .941.66zm2.385.084h.031a.425.425 0 0 0 .4-.57 1.818 1.818 0 0 1 .064-1.286 1.908 1.908 0 0 0 .363-1.583.8.8 0 0 0-.5-.5.43.43 0 0 0-.523.287.425.425 0 0 0 .034.324.416.416 0 0 0 .249.205.263.263 0 0 1-.046-.016 1.171 1.171 0 0 1-.281.827l-.026.043-.078.125a1.752 1.752 0 0 0-.382 1.661.883.883 0 0 0 .695.484z" fill="#fff" fill-rule="evenodd"/></svg>