<svg xmlns="http://www.w3.org/2000/svg" width="11.656" height="16"><path d="M11.564 13.989L8.499 5.698v-2.44a1.473 1.473 0 0 0 .994-1.389v-.4A1.476 1.476 0 0 0 8.014 0h-4.37a1.477 1.477 0 0 0-1.479 1.471v.4a1.471 1.471 0 0 0 1 1.388V5.7L.106 13.975a1.464 1.464 0 0 0 .142 1.376A1.479 1.479 0 0 0 1.476 16h8.722a1.476 1.476 0 0 0 1.227-.65 1.45 1.45 0 0 0 .139-1.361zm-8.111-1.88a.5.5 0 1 1 .5.5.5.5 0 0 1-.5-.5zm3.25.437a.866.866 0 1 1-.871.865.869.869 0 0 1 .871-.865zm-.742-1.9a.628.628 0 1 1 .629.624.628.628 0 0 1-.629-.622zM4.133 5.869V2.364h-.489a.5.5 0 0 1-.5-.5v-.4a.5.5 0 0 1 .5-.5h4.375a.5.5 0 0 1 .5.5v.4a.5.5 0 0 1-.5.5h-.49v3.5l.859 2.321c-.012.011-.022.018-.034.03-.639.66-5.308.736-5.308.736h-.045zm1.353 1.873a.678.678 0 1 0-.682-.678.681.681 0 0 0 .682.68z" fill="#fff" fill-rule="evenodd"/></svg>