<svg xmlns="http://www.w3.org/2000/svg" width="16" height="15" id="icon"><path d="M15.94.002a.174.174 0 0 0-.18-.016L.08 7.935a.161.161 0 0 0-.08.156.155.155 0 0 0 .11.14l4.96 1.565a.173.173 0 0 0 .16-.034l7.54-6.4-5.79 6.8a.137.137 0 0 0-.03.149.145.145 0 0 0 .1.107l5.83 1.759a.14.14 0 0 0 .04.007.153.153 0 0 0 .08-.021.161.161 0 0 0 .08-.1l2.91-11.9a.165.165 0 0 0-.05-.161zM8.76 12.163l-1.61-.491a.178.178 0 0 0-.15.024.158.158 0 0 0-.06.129v3.012a.162.162 0 0 0 .12.154.14.14 0 0 0 .04.007.175.175 0 0 0 .14-.075l1.61-2.522a.171.171 0 0 0 .01-.14.157.157 0 0 0-.1-.098z" fill="#fff" fill-rule="evenodd"/></svg>