<svg xmlns="http://www.w3.org/2000/svg" width="16" height="16" id="icon"><path d="M14.663 4H8.987l2.239-2.687a.616.616 0 0 0 .1.02.69.69 0 1 0-.621-.441L8.119 4h-.243L5.287.892a.683.683 0 0 0 .045-.226.667.667 0 1 0-.667.667.6.6 0 0 0 .1-.02L7.008 4H1.332A1.334 1.334 0 0 0 0 5.334v9.337a1.333 1.333 0 0 0 1.332 1.334h13.331A1.333 1.333 0 0 0 16 14.671V5.334A1.334 1.334 0 0 0 14.663 4zM12 13.337a1.334 1.334 0 0 1-1.334 1.334h-8a1.334 1.334 0 0 1-1.334-1.334V6.668a1.334 1.334 0 0 1 1.334-1.334h8A1.334 1.334 0 0 1 12 6.668v6.669zm1.964-5.96a.953.953 0 1 1 .951-.953.953.953 0 0 1-.954.953z" fill="#fff" fill-rule="evenodd"/></svg>